<svg width="140" height="24" viewBox="0 0 140 24" fill="none" xmlns="http://www.w3.org/2000/svg">
<g clip-path="url(#clip0_200_869)">
<path d="M77.6948 19.9672H74.8292V13.7153C74.8036 12.5203 75.0695 11.337 75.6042 10.2675C76.0982 9.29928 76.854 8.48852 77.786 7.92713C78.7656 7.36759 79.8746 7.07324 81.0033 7.07324C82.1319 7.07324 83.241 7.36759 84.2206 7.92713C85.1491 8.49335 85.9045 9.30281 86.4045 10.2675C86.9457 11.3351 87.2156 12.5191 87.1904 13.7153V19.9672H84.3486V13.2776C84.3589 12.6254 84.2099 11.9805 83.9145 11.3987C83.6447 10.8699 83.2328 10.4264 82.7248 10.118C82.2004 9.80543 81.5988 9.64555 80.9881 9.65643C80.3859 9.64833 79.7935 9.80819 79.2774 10.118C78.7706 10.4245 78.3617 10.8687 78.0986 11.3987C77.8137 11.9835 77.6716 12.6274 77.684 13.2776L77.6948 19.9672Z" fill="#1EB7D9"/>
<path d="M92.7847 14.7771C92.9444 15.6284 93.4344 16.3823 94.148 16.8748C94.9395 17.4035 95.8774 17.6703 96.8291 17.6376C97.4539 17.6534 98.0764 17.5549 98.6657 17.3472C99.1957 17.1353 99.667 16.7993 100.04 16.3677L101.89 18.006C101.228 18.7177 100.423 19.2811 99.5267 19.6588C98.6308 20.0365 97.6647 20.2199 96.6923 20.1968C95.462 20.2166 94.2466 19.9267 93.1581 19.3539C92.1346 18.8186 91.2818 18.0078 90.6963 17.0135C90.0964 15.9955 89.7863 14.8333 89.7997 13.6524C89.782 12.4797 90.0733 11.3229 90.6442 10.2978C91.1982 9.31413 92.0192 8.50663 93.0127 7.96822C94.0838 7.393 95.2852 7.1027 96.5013 7.12524C97.6057 7.10519 98.6963 7.37177 99.6665 7.89888C100.569 8.39313 101.317 9.1275 101.827 10.0204C102.351 10.9525 102.618 12.007 102.599 13.0759C102.584 13.6472 102.539 14.2172 102.463 14.7836L92.7847 14.7771ZM94.0873 10.3953C93.4396 10.8892 92.9962 11.6033 92.8412 12.402H99.7729C99.6166 11.494 99.2562 10.8092 98.6874 10.3476C98.0547 9.86413 97.2712 9.61929 96.4753 9.65635C95.6139 9.62968 94.7685 9.89217 94.0742 10.4018L94.0873 10.3953Z" fill="#1EB7D9"/>
<path d="M107.176 14.7772C107.334 15.6291 107.824 16.3835 108.539 16.8749C109.33 17.4035 110.267 17.6704 111.218 17.6377C111.843 17.6539 112.465 17.5554 113.055 17.3473C113.585 17.1354 114.057 16.7995 114.431 16.3678L116.278 18.0061C115.615 18.7196 114.808 19.284 113.91 19.6618C113.011 20.0396 112.043 20.222 111.068 20.197C109.842 20.2143 108.632 19.9245 107.547 19.354C106.524 18.8187 105.672 18.0079 105.087 17.0136C104.488 15.9956 104.179 14.8332 104.195 13.6525C104.177 12.4799 104.467 11.3231 105.037 10.2979C105.591 9.31424 106.412 8.50674 107.406 7.96833C108.477 7.39311 109.678 7.10281 110.894 7.12535C111.998 7.10281 113.089 7.36717 114.06 7.89249C114.967 8.38458 115.718 9.11923 116.231 10.014C116.756 10.9459 117.023 12.0005 117.006 13.0696C116.991 13.6409 116.944 14.2109 116.867 14.7772H107.176ZM108.478 10.3954C107.83 10.8891 107.386 11.6031 107.23 12.4021H114.162C114.008 11.4948 113.646 10.81 113.076 10.3477C112.448 9.86863 111.671 9.62407 110.881 9.65646C110.016 9.62734 109.167 9.88995 108.47 10.4019L108.478 10.3954Z" fill="#1EB7D9"/>
<path d="M119.053 12.7703C119.028 11.7183 119.278 10.678 119.778 9.75158C120.23 8.92448 120.901 8.23768 121.719 7.76657C122.531 7.30543 123.452 7.06695 124.387 7.07528C125.223 7.05714 126.055 7.19835 126.838 7.49135C127.515 7.75725 128.14 8.13935 128.685 8.62038L127.085 10.6704L127.05 10.6379L127.016 10.6011C126.721 10.3183 126.376 10.0921 126 9.93361C125.566 9.74691 125.098 9.65244 124.626 9.65623C123.731 9.65623 123.057 9.91772 122.604 10.4407C122.151 10.9637 121.924 11.7785 121.923 12.8851V19.967H119.053V12.7703Z" fill="#1EB7D9"/>
<path d="M134.392 20.1968C133.395 20.1927 132.403 20.0468 131.447 19.7634C130.538 19.5064 129.664 19.1427 128.841 18.6799L130.02 16.2961C130.734 16.7219 131.498 17.0561 132.295 17.2908C133.022 17.4897 133.772 17.5902 134.525 17.5898C134.981 17.5978 135.437 17.5594 135.886 17.475C136.204 17.4248 136.501 17.2849 136.741 17.0719C136.841 16.9749 136.92 16.858 136.972 16.7289C137.024 16.5998 137.048 16.4612 137.043 16.3221C137.048 16.198 137.027 16.0743 136.981 15.9589C136.935 15.8435 136.865 15.7391 136.776 15.6525C136.512 15.4367 136.205 15.2794 135.875 15.1909C135.288 15.0153 134.689 14.8771 134.084 14.777C133.095 14.6264 132.129 14.3512 131.21 13.9579C130.599 13.7081 130.076 13.2827 129.708 12.7357C129.403 12.1988 129.253 11.5884 129.273 10.9717C129.251 10.2244 129.448 9.4869 129.84 8.85015C130.238 8.24855 130.816 7.78808 131.492 7.53475C132.334 7.22354 133.228 7.07641 134.125 7.10135C135.103 7.11224 136.076 7.23586 137.026 7.46974C137.892 7.64834 138.723 7.96752 139.485 8.41457L138.33 10.7983C137.689 10.4286 136.996 10.1562 136.275 9.99001C135.51 9.80618 134.727 9.71308 133.941 9.71263C133.609 9.70394 133.278 9.74336 132.957 9.82965C132.739 9.88617 132.54 10.0016 132.382 10.1634C132.249 10.3278 132.179 10.5344 132.185 10.7458C132.191 10.9572 132.272 11.1596 132.415 11.3162C132.649 11.5244 132.931 11.6731 133.235 11.7497C133.622 11.8623 134.177 11.9953 134.9 12.1484C135.945 12.3471 136.961 12.6724 137.927 13.1171C138.668 13.4855 139.184 13.9232 139.475 14.4303C139.778 14.9887 139.928 15.6176 139.909 16.2528C139.93 17.0144 139.696 17.7614 139.242 18.3743C138.746 19.005 138.076 19.4779 137.314 19.7352C136.376 20.0612 135.386 20.2175 134.392 20.1968V20.1968Z" fill="#1EB7D9"/>
<path d="M19.1714 4.43361C18.2173 3.85981 17.1199 3.56753 16.0062 3.59063C14.8564 3.56919 13.7225 3.8606 12.726 4.43361C12.0322 4.83605 11.4256 5.37234 10.9415 6.01121C10.5103 5.37852 9.94943 4.84447 9.29595 4.44444C8.35376 3.87141 7.26869 3.57546 6.1655 3.59063C5.05235 3.57163 3.95604 3.86361 3.00031 4.43361C2.06772 5.00359 1.32107 5.83173 0.851115 6.81735C0.321683 7.94228 0.0601438 9.17422 0.0869547 10.4168V19.967H3.09149V10.432C3.0722 9.70058 3.20987 8.97352 3.49528 8.29961C3.73083 7.7508 4.13335 7.28985 4.64586 6.98205C5.1579 6.68644 5.74128 6.53655 6.33266 6.54864C6.93312 6.53699 7.52488 6.69311 8.04116 6.99938C8.55256 7.32026 8.95214 7.79103 9.18523 8.34729C9.46841 9.01882 9.60602 9.74258 9.58902 10.471V19.967H12.587V10.432C12.5678 9.70058 12.7054 8.97352 12.9908 8.29961C13.2257 7.74681 13.6301 7.28251 14.1458 6.97338C14.655 6.6806 15.2341 6.53084 15.8217 6.53997C16.4242 6.52713 17.0189 6.67687 17.5432 6.97338C18.0599 7.28439 18.4673 7.74777 18.709 8.29961C19.0033 8.97116 19.1457 9.69924 19.1258 10.432V19.967H22.0826V10.4168C22.1099 9.17369 21.8445 7.94152 21.3076 6.81952C20.8363 5.83831 20.0955 5.0109 19.1714 4.43361V4.43361Z" fill="#0A6AA7"/>
<path d="M34.8215 7.9377C33.7344 7.34864 32.5132 7.05004 31.2764 7.07089C30.0259 7.04979 28.7903 7.34343 27.6835 7.9247C26.6588 8.46455 25.8094 9.28464 25.2347 10.2889C24.6483 11.3261 24.3486 12.5003 24.3664 13.6912C24.3482 14.867 24.6482 16.0259 25.2347 17.0458C25.8013 18.0265 26.6275 18.8325 27.6227 19.3754C28.6587 19.9441 29.8249 20.2346 31.0072 20.2183C32.0341 20.2134 33.0515 20.0218 34.0096 19.6527C34.4562 19.4895 34.8807 19.2711 35.273 19.0026V19.9756H38.1365V13.9079C38.1613 12.6729 37.862 11.4529 37.2681 10.3691C36.6991 9.34413 35.8508 8.50109 34.8215 7.9377V7.9377ZM33.3018 17.152C32.6789 17.4785 31.9843 17.6453 31.2807 17.6374C30.5577 17.6521 29.8425 17.4852 29.201 17.152C28.6077 16.8363 28.1184 16.3561 27.7921 15.7694C27.4409 15.1261 27.265 14.402 27.2819 13.6695C27.2686 12.9432 27.4396 12.2253 27.779 11.5827C28.0998 10.986 28.5849 10.4935 29.1771 10.1633C29.8133 9.8301 30.521 9.65605 31.2395 9.65605C31.9579 9.65605 32.6656 9.8301 33.3018 10.1633C33.9045 10.4962 34.4011 10.9919 34.7346 11.5935C35.0879 12.2365 35.2675 12.9601 35.2557 13.6934C35.273 14.4228 35.0938 15.1435 34.7368 15.7802C34.3978 16.3635 33.9003 16.8391 33.3018 17.152V17.152Z" fill="#0A6AA7"/>
<path d="M58.5647 7.32666H55.6991V19.9649H58.5647V7.32666Z" fill="#0A6AA7"/>
<path d="M69.619 17.3472C69.1078 17.5482 68.5619 17.6469 68.0125 17.6376C67.3001 17.6505 66.595 17.4922 65.9567 17.176C65.3576 16.8698 64.86 16.3972 64.5239 15.8151C64.1549 15.1536 63.9719 14.4048 63.9942 13.6481C63.9759 12.904 64.1549 12.1684 64.513 11.5157C64.8376 10.9308 65.3226 10.4504 65.9111 10.1309C66.531 9.80807 67.2222 9.64563 67.9213 9.65853C68.4898 9.64977 69.0546 9.75133 69.5843 9.95758C70.1163 10.1881 70.5842 10.5443 70.9476 10.9956L72.9817 9.26196C72.3658 8.55235 71.5948 7.99335 70.7283 7.62801C69.8474 7.25578 68.8996 7.067 67.9431 7.07324C66.7245 7.05917 65.5216 7.34891 64.4435 7.91622C63.4165 8.45052 62.5599 9.26128 61.9709 10.2566C61.3711 11.2929 61.0663 12.4731 61.0895 13.6697C61.0694 14.8558 61.3766 16.0246 61.9774 17.0481C62.5689 18.0388 63.4251 18.8455 64.4501 19.3777C65.5361 19.9466 66.7471 20.2363 67.9734 20.2207C68.9299 20.2258 69.8775 20.0371 70.7587 19.6659C71.6202 19.3027 72.384 18.7423 72.9882 18.0298L70.9541 16.3222C70.599 16.7669 70.1408 17.1187 69.619 17.3472V17.3472Z" fill="#0A6AA7"/>
<path d="M46.5552 23.9998C45.4418 24.0079 44.3329 23.8576 43.2619 23.5534C42.2853 23.278 41.3585 22.8501 40.5157 22.2857L41.6598 20.2313C42.3063 20.6987 43.0249 21.0574 43.7873 21.2932C44.5791 21.5446 45.4052 21.6718 46.2361 21.6703C47.5473 21.6703 48.5727 21.3387 49.3123 20.6756C50.0518 20.0125 50.4223 19.0951 50.4238 17.9234V17.308C49.9576 17.9693 49.3154 18.4872 48.5698 18.8033C47.7002 19.1635 46.7649 19.3384 45.8236 19.3168C44.7533 19.332 43.6985 19.0604 42.7691 18.5302C41.875 18.0189 41.1419 17.2683 40.6525 16.3632C40.1403 15.4052 39.8811 14.3327 39.8992 13.247C39.8823 12.1427 40.1412 11.0516 40.6525 10.0722C41.1316 9.15442 41.857 8.38763 42.7474 7.85752C43.6671 7.31602 44.7191 7.03925 45.7867 7.05789C46.7427 7.03661 47.6929 7.21141 48.5785 7.57147C49.3413 7.88991 49.9994 8.41544 50.478 9.0884V7.3266H53.3154V17.6049C53.3154 19.5986 52.7206 21.1632 51.5309 22.2987C50.3413 23.4342 48.6827 24.0013 46.5552 23.9998ZM46.5335 17.0653C47.2196 17.0753 47.8982 16.9223 48.5134 16.6189C49.0845 16.3362 49.5667 15.9021 49.9071 15.3642C50.2645 14.7766 50.4509 14.1012 50.4455 13.4138C50.4562 12.6531 50.2835 11.9009 49.9418 11.2208C49.6398 10.6454 49.1696 10.1753 48.5937 9.87287C47.9586 9.55345 47.2554 9.39282 46.5444 9.40479C45.8596 9.39374 45.1846 9.56743 44.5905 9.90755C44.0223 10.2312 43.5515 10.7012 43.2272 11.2685C42.9038 11.8729 42.7346 12.5476 42.7346 13.2329C42.7346 13.9181 42.9038 14.5929 43.2272 15.1973C43.544 15.7652 44.0111 16.2353 44.5775 16.556C45.1767 16.895 45.8558 17.0678 46.5444 17.0566L46.5335 17.0653Z" fill="#0A6AA7"/>
<path d="M58.0285 3.75982C57.8874 3.90068 57.31 5.19223 57.1298 5.72966C56.9518 5.1944 56.3743 3.90068 56.2332 3.75982C56.0921 3.61896 55.5168 3.0447 54.9784 2.86483C55.5168 2.68713 56.0942 2.10853 56.2354 1.96767C56.3765 1.82682 56.9517 0.537427 57.1319 0C57.3121 0.537427 57.8896 1.82898 58.0285 1.96767C58.1675 2.10637 58.7493 2.68713 59.2855 2.86266C58.7471 3.03386 58.1675 3.62113 58.0285 3.75982Z" fill="#0A6AA7"/>
</g>
<defs>
<clipPath id="clip0_200_869">
<rect width="139.826" height="24" fill="white" transform="translate(0.0869141)"/>
</clipPath>
</defs>
</svg>
